<?xml version="1.0" encoding="utf-8"?>
<!-- Generator: Adobe Illustrator 22.0.1, SVG Export Plug-In . SVG Version: 6.00 Build 0)  -->
<svg version="1.1" id="Camada_1" xmlns="http://www.w3.org/2000/svg" xmlns:xlink="http://www.w3.org/1999/xlink" x="0px" y="0px"
	 viewBox="0 0 786.5 1167.3" style="enable-background:new 0 0 786.5 1167.3;" xml:space="preserve">
<style type="text/css">
	.st0{fill:#1E120D;}
	.st1{display:none;}
	.st2{display:inline;fill:#1E120D;}
	.st3{font-family:'SourceSansPro-Bold';}
	.st4{font-size:200px;}
	.st5{letter-spacing:40;}
	.st6{font-family:'SourceSansPro-SemiBold';}
	.st7{font-size:60px;}
	.st8{letter-spacing:30;}
</style>
<path id="Logo_GearC" class="st0" d="M743.6,358.4c-83.3-7.1-71.2-8.4-133-7.4c-28.4,0.5-69.2,5.4-102.6,12.8
	c-17.4-37-55.9-61.6-99.2-59.4c-57.1,3-101,51.7-98,108.8c3,57.1,51.7,101,108.8,98c42.4-2.2,77.4-29.6,91.5-66.9l78.3,20.3
	c-5.7,81.5-73.2,145.2-164.4,150c-114.2,6-211.7-81.8-217.6-196c-5.1-97.9,63.3-177.1,153.6-203.3c27-7.8,82.7-16.9,99.6-77.5
	c6.7-24.1,5.1-49.7-3.9-73.1l-25-64.6c-11.4-0.3-22.9-0.2-34.5,0.4c-0.1,0-0.2,0-0.3,0c-20.1,1.1-37.2,15.1-42.5,34.5l-21.9,80.6
	c-33,9.5-67,20-94.4,39.1L130.5,106c-8.5,8-16.6,16.3-24.4,24.9c-13.5,15-15.7,37-5.7,54.5l43.1,72.4
	c-16.1,29.2-29.3,61.4-35.3,95.2L0.2,394.9c-0.3,11.4-0.2,22.9,0.4,34.5c0,0.1,0,0.2,0,0.3c1.1,20.1,15.1,37.2,34.5,42.5l80.6,21.9
	c9.5,33,24.4,63.7,43.5,91.1l-46.8,106.1c8,8.5,16.3,16.6,24.9,24.4c15,13.5,37,15.7,54.5,5.7l72.5-41.5
	c29.2,16.1,61.3,27.7,95.1,33.7l41.9,108.1c11.4,0.3,22.9,0.2,34.5-0.4c0.1,0,0.2,0,0.3,0c20.1-1.1,37.2-15.1,42.5-34.5l21.9-80.6
	c33-9.5,61.2-25.6,88.6-44.7l108.6,48.1c7.7-7.3,15.1-14.8,22.3-22.6c14.6-16,16.3-39.9,4.2-57.8l-45.3-67
	c15.7-36.9,19.2-54.7,19.1-95.9l88.2-28.7c0.2-5.1,0.3-18.3,0.2-32.5C786.4,380.7,767.8,360.5,743.6,358.4z"/>
<g id="creations" class="st1">
	<path class="st2" d="M146.6,1167.3c-2.5,0-4.8-0.4-7-1.3c-2.2-0.9-4-2.2-5.6-3.9c-1.6-1.7-2.8-3.8-3.8-6.4
		c-0.9-2.5-1.4-5.4-1.4-8.6c0-3.2,0.5-6.1,1.4-8.6c0.9-2.5,2.2-4.7,3.8-6.4s3.5-3.1,5.7-4c2.2-0.9,4.5-1.4,7-1.4
		c2.5,0,4.7,0.5,6.6,1.5c1.9,1,3.5,2.2,4.7,3.5l-3.7,4.5c-1-1-2.2-1.9-3.4-2.5c-1.2-0.6-2.6-0.9-4.1-0.9c-1.6,0-3.1,0.3-4.4,1
		c-1.3,0.7-2.5,1.6-3.5,2.8c-1,1.2-1.7,2.7-2.3,4.5c-0.5,1.8-0.8,3.7-0.8,5.9c0,4.5,1,8,2.9,10.5c1.9,2.5,4.6,3.8,7.9,3.8
		c1.8,0,3.3-0.4,4.7-1.1c1.4-0.7,2.6-1.7,3.7-2.9l3.7,4.4c-1.6,1.8-3.4,3.3-5.5,4.2C151.4,1166.8,149.1,1167.3,146.6,1167.3z"/>
	<path class="st2" d="M195.5,1166.6v-39.2h13.3c2,0,3.9,0.2,5.7,0.6c1.8,0.4,3.3,1,4.6,1.9c1.3,0.9,2.3,2.1,3,3.6
		c0.7,1.5,1.1,3.3,1.1,5.5c0,3-0.7,5.4-2.1,7.3c-1.4,1.8-3.3,3.2-5.7,4l9.4,16.4h-7.8l-8.5-15.4h-6v15.4H195.5z M202.5,1145.7h5.6
		c2.7,0,4.7-0.6,6.1-1.7c1.4-1.1,2.1-2.8,2.1-5c0-2.3-0.7-3.9-2.1-4.7c-1.4-0.9-3.5-1.3-6.1-1.3h-5.6V1145.7z"/>
	<path class="st2" d="M261,1166.6v-39.2h23.6v5.9H268v10h14.1v5.9H268v11.6h17.3v5.9H261z"/>
	<path class="st2" d="M318.2,1166.6l12.8-39.2h8.2l12.8,39.2h-7.3l-3.1-10.6h-13.2l-3.1,10.6H318.2z M331.3,1145.7l-1.4,4.8h10
		l-1.4-4.8c-0.6-2.1-1.3-4.2-1.8-6.4c-0.6-2.2-1.2-4.4-1.7-6.5h-0.2c-0.6,2.2-1.1,4.4-1.7,6.6C332.6,1141.5,332,1143.6,331.3,1145.7
		z"/>
	<path class="st2" d="M390.9,1166.6v-33.4h-11.3v-5.9h29.6v5.9h-11.3v33.4H390.9z"/>
	<path class="st2" d="M445.7,1166.6v-39.2h7v39.2H445.7z"/>
	<path class="st2" d="M507.9,1167.3c-2.6,0-4.9-0.5-7-1.4c-2.1-0.9-3.9-2.3-5.5-4.1c-1.5-1.8-2.7-3.9-3.5-6.5
		c-0.8-2.5-1.3-5.4-1.3-8.6c0-3.2,0.4-6,1.3-8.5c0.8-2.5,2-4.6,3.5-6.3c1.5-1.7,3.3-3,5.5-4c2.1-0.9,4.5-1.4,7-1.4
		c2.6,0,4.9,0.5,7,1.4c2.1,0.9,3.9,2.2,5.5,4c1.5,1.7,2.7,3.8,3.6,6.3c0.8,2.5,1.3,5.3,1.3,8.5c0,3.2-0.4,6.1-1.3,8.6
		c-0.8,2.5-2,4.7-3.6,6.5s-3.4,3.1-5.5,4.1C512.8,1166.8,510.4,1167.3,507.9,1167.3z M507.9,1161.3c1.6,0,3-0.3,4.2-1
		c1.2-0.7,2.3-1.6,3.2-2.9c0.9-1.3,1.6-2.8,2-4.6c0.5-1.8,0.7-3.8,0.7-6c0-4.4-0.9-7.8-2.7-10.4c-1.8-2.5-4.3-3.8-7.4-3.8
		s-5.6,1.3-7.4,3.8c-1.8,2.5-2.7,6-2.7,10.4c0,2.2,0.2,4.2,0.7,6c0.5,1.8,1.2,3.3,2,4.6c0.9,1.3,1.9,2.2,3.2,2.9
		C504.9,1160.9,506.3,1161.3,507.9,1161.3z"/>
	<path class="st2" d="M563.1,1166.6v-39.2h7.1l12.2,22.1l4,8.3h0.2c-0.2-2-0.4-4.2-0.6-6.6c-0.2-2.3-0.3-4.6-0.3-6.8v-17h6.7v39.2
		h-7.1l-12.2-22.1l-4-8.3h-0.2c0.2,2.1,0.3,4.3,0.6,6.5c0.2,2.3,0.3,4.5,0.3,6.7v17.2H563.1z"/>
	<path class="st2" d="M643.9,1167.3c-2.6,0-5.2-0.5-7.7-1.5c-2.5-1-4.6-2.4-6.5-4.3l4.1-4.7c1.4,1.3,3,2.4,4.8,3.2
		c1.8,0.8,3.6,1.2,5.4,1.2c2.2,0,3.9-0.5,5.1-1.4s1.7-2.1,1.7-3.7c0-0.8-0.2-1.5-0.5-2c-0.3-0.6-0.7-1-1.3-1.5s-1.2-0.8-1.9-1.2
		c-0.7-0.4-1.6-0.7-2.4-1.1l-5.4-2.3c-1-0.4-1.9-0.9-2.9-1.5c-0.9-0.6-1.8-1.3-2.5-2.2c-0.8-0.8-1.4-1.8-1.8-2.9
		c-0.5-1.1-0.7-2.4-0.7-3.8c0-1.6,0.3-3,1-4.3c0.7-1.3,1.6-2.5,2.7-3.5c1.2-1,2.5-1.8,4.2-2.3c1.6-0.6,3.4-0.8,5.3-0.8
		c2.3,0,4.5,0.5,6.6,1.3c2.1,0.9,3.9,2.1,5.5,3.6l-3.5,4.4c-1.3-1-2.6-1.9-4-2.5c-1.4-0.6-2.9-0.9-4.6-0.9c-1.9,0-3.4,0.4-4.5,1.2
		c-1.1,0.8-1.7,2-1.7,3.4c0,0.8,0.2,1.4,0.5,2s0.8,1,1.4,1.4c0.6,0.4,1.2,0.8,2,1.1c0.8,0.3,1.5,0.7,2.3,1l5.3,2.2
		c1.2,0.5,2.2,1,3.2,1.7c1,0.6,1.8,1.4,2.5,2.2c0.7,0.8,1.3,1.8,1.7,2.9c0.4,1.1,0.6,2.4,0.6,3.8c0,1.6-0.3,3.1-1,4.5
		c-0.6,1.4-1.6,2.6-2.8,3.7c-1.2,1.1-2.7,1.9-4.4,2.5C648.1,1167,646.1,1167.3,643.9,1167.3z"/>
</g>
<text transform="matrix(1 0 0 1 95.8573 1094.5947)" class="st1"><tspan x="0" y="0" class="st2 st3 st4 st5">GEAR</tspan><tspan x="28.2" y="72" class="st2 st6 st7 st8">CREATIONS</tspan></text>
<g id="tipo">
	<g id="creations_1_">
		<g>
			<path class="st0" d="M146.6,1166.8c-2.5,0.1-4.8-0.3-7-1.1c-2.2-0.8-4.1-2.1-5.7-3.7c-1.6-1.7-3-3.7-4-6.2
				c-1-2.5-1.6-5.4-1.7-8.6c-0.1-3.2,0.3-6.1,1.1-8.7c0.9-2.6,2.1-4.8,3.7-6.6c1.6-1.8,3.4-3.2,5.6-4.2c2.2-1,4.5-1.5,7-1.6
				c2.5-0.1,4.7,0.4,6.7,1.3c2,0.9,3.6,2.1,4.9,3.3c-1.2,1.5-2.4,3.1-3.6,4.6c-1.1-1-2.2-1.8-3.4-2.4c-1.2-0.6-2.6-0.9-4.1-0.8
				c-1.6,0-3.1,0.4-4.4,1.1c-1.3,0.7-2.5,1.7-3.4,2.9c-0.9,1.3-1.7,2.8-2.2,4.5c-0.5,1.8-0.7,3.8-0.6,6c0.1,4.5,1.2,8,3.2,10.4
				c2,2.5,4.7,3.7,8,3.6c1.8-0.1,3.3-0.5,4.7-1.2c1.3-0.8,2.6-1.8,3.6-3c1.3,1.4,2.6,2.8,3.8,4.3c-1.5,1.9-3.3,3.3-5.4,4.4
				C151.4,1166.1,149.1,1166.7,146.6,1166.8z"/>
			<path class="st0" d="M195.5,1164.8c-0.3-13.1-0.6-26.2-0.9-39.2c4.4-0.1,8.9-0.2,13.3-0.3c2,0,4,0.1,5.7,0.5
				c1.8,0.4,3.3,1,4.6,1.9c1.3,0.9,2.3,2,3.1,3.5c0.8,1.5,1.2,3.3,1.2,5.5c0.1,3-0.6,5.4-2,7.3c-1.4,1.9-3.3,3.2-5.6,4.1
				c3.2,5.4,6.5,10.8,9.7,16.2c-2.6,0.1-5.2,0.1-7.8,0.2c-2.9-5.1-5.9-10.1-8.8-15.2c-2,0-4,0.1-6,0.1c0.1,5.1,0.2,10.2,0.3,15.4
				C200.1,1164.7,197.8,1164.7,195.5,1164.8z M202,1143.7c1.9,0,3.7-0.1,5.6-0.1c2.7-0.1,4.7-0.7,6.1-1.8c1.4-1.1,2.1-2.8,2-5.1
				c0-2.3-0.8-3.8-2.2-4.7c-1.4-0.8-3.5-1.2-6.2-1.2c-1.9,0-3.7,0.1-5.6,0.1C201.8,1135.2,201.9,1139.5,202,1143.7z"/>
			<path class="st0" d="M261,1163.5c-0.2-13.1-0.4-26.2-0.6-39.2c7.9-0.1,15.8-0.2,23.8-0.3c0,2,0.1,3.9,0.1,5.9
				c-5.6,0.1-11.2,0.1-16.7,0.2c0,3.3,0.1,6.7,0.1,10c4.7-0.1,9.4-0.1,14.1-0.2c0,2,0.1,3.9,0.1,5.9c-4.7,0.1-9.4,0.1-14.1,0.2
				c0.1,3.9,0.1,7.7,0.2,11.6c5.8-0.1,11.5-0.2,17.3-0.2c0,2,0.1,3.9,0.1,5.9C277.2,1163.2,269.1,1163.4,261,1163.5z"/>
			<path class="st0" d="M318.2,1162.8c4.1-13.1,8.3-26.2,12.5-39.3c2.7,0,5.5,0,8.2-0.1c4.4,13.1,8.7,26.1,13,39.2
				c-2.4,0-4.9,0-7.3,0c-1-3.5-2.1-7.1-3.1-10.6c-4.4,0-8.8,0.1-13.2,0.1c-1,3.5-2,7.1-3,10.6
				C322.9,1162.7,320.5,1162.8,318.2,1162.8z M331.2,1141.8c-0.4,1.6-0.9,3.2-1.3,4.8c3.3,0,6.7,0,10-0.1c-0.5-1.6-0.9-3.2-1.4-4.8
				c-0.7-2.1-1.3-4.2-1.9-6.4c-0.6-2.2-1.2-4.4-1.8-6.5c-0.1,0-0.2,0-0.2,0c-0.5,2.2-1.1,4.4-1.6,6.6
				C332.4,1137.6,331.8,1139.7,331.2,1141.8z"/>
			<path class="st0" d="M390.9,1162.4c0-11.1,0-22.2,0-33.4c-3.8,0-7.6,0-11.4,0c0-2,0-3.9,0-5.9c9.9,0,19.9,0,29.8,0
				c0,2,0,3.9,0,5.9c-3.8,0-7.6,0-11.4,0c0,11.1,0,22.2,0,33.4C395.5,1162.4,393.2,1162.4,390.9,1162.4z"/>
			<path class="st0" d="M445.7,1162.6c0.1-13.1,0.2-26.2,0.2-39.2c2.3,0,4.7,0,7,0c-0.1,13.1-0.2,26.2-0.3,39.2
				C450.4,1162.6,448,1162.6,445.7,1162.6z"/>
			<path class="st0" d="M507.9,1163.9c-2.6,0-4.9-0.5-7-1.5c-2.1-1-3.9-2.3-5.4-4.1c-1.5-1.8-2.7-4-3.5-6.5
				c-0.8-2.5-1.2-5.4-1.2-8.6c0-3.2,0.5-6,1.4-8.5c0.9-2.5,2.1-4.6,3.6-6.3c1.5-1.7,3.4-3,5.5-3.9c2.1-0.9,4.5-1.3,7.1-1.3
				c2.6,0,4.9,0.5,7,1.5c2.1,1,3.9,2.3,5.5,4c1.5,1.7,2.7,3.9,3.5,6.4c0.8,2.5,1.2,5.4,1.1,8.5c0,3.2-0.5,6.1-1.4,8.6
				c-0.9,2.5-2.1,4.6-3.7,6.4c-1.6,1.8-3.4,3.1-5.6,4C512.8,1163.5,510.4,1164,507.9,1163.9z M508,1157.9c1.6,0,3-0.3,4.2-1
				c1.3-0.7,2.3-1.6,3.2-2.9c0.9-1.2,1.6-2.8,2.1-4.5c0.5-1.8,0.8-3.8,0.8-6c0.1-4.4-0.8-7.9-2.6-10.4c-1.8-2.5-4.3-3.8-7.4-3.9
				c-3.1,0-5.6,1.2-7.5,3.7c-1.9,2.5-2.8,5.9-2.9,10.3c0,2.2,0.2,4.2,0.6,6c0.5,1.8,1.1,3.3,2,4.6c0.9,1.3,1.9,2.3,3.1,2.9
				C505,1157.5,506.4,1157.9,508,1157.9z"/>
			<path class="st0" d="M563.1,1164.1c0.3-13.1,0.5-26.2,0.8-39.2c2.4,0,4.8,0.1,7.2,0.1c3.9,7.4,7.9,14.9,11.8,22.3
				c1.3,2.8,2.6,5.6,3.8,8.4c0.1,0,0.2,0,0.2,0c-0.1-2-0.3-4.2-0.4-6.6c-0.2-2.3-0.2-4.6-0.2-6.8c0.1-5.7,0.3-11.4,0.4-17
				c2.2,0.1,4.5,0.1,6.7,0.2c-0.3,13.1-0.6,26.2-0.9,39.2c-2.4-0.1-4.8-0.1-7.1-0.2c-3.9-7.5-7.8-14.9-11.8-22.3
				c-1.3-2.8-2.6-5.6-3.9-8.4c-0.1,0-0.2,0-0.2,0c0.1,2.1,0.3,4.3,0.4,6.6c0.2,2.3,0.2,4.5,0.2,6.7c-0.1,5.7-0.2,11.4-0.4,17.2
				C567.5,1164.2,565.3,1164.2,563.1,1164.1z"/>
			<path class="st0" d="M643.9,1166.9c-2.6-0.1-5.2-0.7-7.6-1.7c-2.4-1.1-4.6-2.6-6.4-4.4c1.4-1.5,2.8-3.1,4.2-4.6
				c1.4,1.4,2.9,2.5,4.7,3.3c1.8,0.9,3.6,1.3,5.4,1.4c2.2,0.1,4-0.3,5.1-1.2c1.2-0.9,1.8-2.1,1.9-3.6c0-0.8-0.1-1.5-0.4-2.1
				c-0.3-0.6-0.7-1.1-1.2-1.5c-0.5-0.4-1.2-0.8-1.9-1.2c-0.7-0.4-1.5-0.8-2.4-1.2c-1.8-0.8-3.6-1.7-5.3-2.5c-1-0.4-1.9-1-2.8-1.6
				c-0.9-0.6-1.8-1.4-2.5-2.2c-0.7-0.9-1.3-1.9-1.8-3c-0.4-1.1-0.6-2.4-0.6-3.9c0-1.6,0.4-3,1.1-4.3c0.7-1.3,1.6-2.5,2.8-3.4
				c1.2-1,2.6-1.7,4.3-2.2c1.6-0.5,3.4-0.7,5.4-0.7c2.3,0.1,4.5,0.6,6.6,1.5c2.1,1,3.9,2.2,5.4,3.8c-1.2,1.4-2.5,2.9-3.7,4.3
				c-1.3-1.1-2.6-1.9-3.9-2.6c-1.3-0.6-2.9-1-4.5-1c-1.9-0.1-3.4,0.3-4.6,1.1c-1.1,0.8-1.7,1.9-1.8,3.3c0,0.8,0.1,1.4,0.5,2
				c0.3,0.5,0.8,1,1.3,1.5c0.6,0.4,1.2,0.8,2,1.2c0.8,0.4,1.5,0.7,2.3,1.1c1.8,0.8,3.5,1.6,5.3,2.4c1.1,0.5,2.2,1.1,3.1,1.8
				c0.9,0.7,1.8,1.4,2.4,2.3c0.7,0.9,1.2,1.8,1.6,3c0.4,1.1,0.5,2.4,0.5,3.8c-0.1,1.6-0.4,3.1-1.1,4.5c-0.7,1.4-1.7,2.6-2.9,3.6
				c-1.3,1-2.8,1.8-4.5,2.4C648.1,1166.7,646.1,1166.9,643.9,1166.9z"/>
		</g>
	</g>
	<g id="GEAR">
		<path class="st0" d="M168.9,1097c-8.9,0-17.3-1.4-25.1-4.3c-7.8-2.9-14.6-7.1-20.3-12.7c-5.7-5.6-10.2-12.6-13.5-20.9
			c-3.3-8.3-4.9-18-4.9-28.9c0-10.8,1.7-20.4,5-28.9c3.3-8.5,7.9-15.6,13.7-21.5c5.8-5.9,12.6-10.3,20.3-13.4
			c7.7-3.1,15.9-4.6,24.6-4.6c9.5,0,17.6,1.7,24.4,5.2c6.6,3.3,11.9,7.1,16.1,11.3c0.3,0.3,0.3,0.7,0,1l-5.7,6.9
			c-4.8,5.9-13.2,7.6-19.9,3.9c-3.7-2-8.4-3-14-3c-5.1,0-9.7,1-13.9,2.9c-4.2,1.9-7.8,4.7-10.9,8.3c-3.1,3.6-5.4,8-7.1,13.2
			c-1.7,5.2-2.5,11.1-2.5,17.6c0,13.5,3,23.9,9.1,31.3c6.1,7.4,15.2,11.1,27.5,11.1c2.7,0,5.3-0.3,7.8-1c0,0,0.1,0,0.1,0
			c3.7-1,6.1-4.4,6.1-8.2c0.3-2.6,0.4-5.5,0.4-8.6c0-2.8-0.2-5.4-0.4-7.9c0,0,0-0.3-0.2-0.5c-0.1-0.1-0.3-0.2-0.5-0.2
			c-2.7,0.3-5.6,0.6-8.9,0.6c-4.2,0.1-7.9-0.2-11.2-0.6c0,0-0.3,0-0.5-0.2c-0.1-0.1-0.2-0.3-0.2-0.5v-12.6c0-5.9,4.8-10.7,10.7-10.7
			c5.7,0.4,11.8,0.6,18.3,0.6c5.9,0,11.5-0.2,16.8-0.6c0.1,0,0.8,0,1.3,0.5c0.3,0.3,0.5,0.8,0.5,1.3v53.1c0,3.5-1.6,6.8-4.5,8.9
			c-3.8,2.8-8.3,5.3-13.5,7.4C186.4,1095.5,178.1,1097,168.9,1097z"/>
		<path class="st0" d="M278.9,1092.7v-118c0-5.8,4.7-10.5,10.5-10.5h69.2c1,0,1.9,0.8,1.9,1.9v12.5c0,5.7-4.7,10.4-10.4,10.4h-39.9
			c-1,0-1.9,0.8-1.9,1.9v22.5c0,1,0.8,1.9,1.9,1.9h40.7c1,0,1.9,0.8,1.9,1.9v12.8c0,5.5-4.5,9.9-9.9,9.9h-32.6c-1,0-1.9,0.8-1.9,1.9
			v26.3c0,1,0.8,1.9,1.9,1.9h50.5c1,0,1.9,0.8,1.9,1.9v21c0,1-0.8,1.9-1.9,1.9h-79.9C279.7,1094.6,278.9,1093.8,278.9,1092.7z"/>
		<path class="st0" d="M412.5,1092.5l39.8-127.2c0.2-0.7,0.8-1.1,1.5-1.1h33.1c0.7,0,1.3,0.5,1.5,1.1l39.8,127.2
			c0.3,1-0.4,2.1-1.5,2.1h-27.8c-0.7,0-1.4-0.5-1.5-1.2l-7.3-28.5c-0.2-0.8-0.9-1.3-1.7-1.2c-5.7,0.6-12.1,1.1-19,1
			c-6.6,0-12.6-0.4-18-1c-0.8-0.1-1.5,0.4-1.7,1.2c-2.4,9.5-4.9,19-7.3,28.5c-0.2,0.7-0.8,1.2-1.5,1.2H414
			C412.9,1094.6,412.2,1093.6,412.5,1092.5z M459.1,1028.6l-2.7,10.3c-0.2,0.9,0.4,1.8,1.3,2c3.6,0.6,7.9,0.9,12.7,0.9
			c4.4,0,8.3-0.4,11.7-0.9c0.9-0.1,1.5-1,1.3-2l-2.6-10.3c-1.9-6.5-3.7-13.5-5.4-20.8c-1.7-7.3-3.5-14.4-5.2-21.2h-0.4h-0.4
			c-1.6,6.9-3.2,14-4.9,21.3C462.7,1015.2,460.9,1022.1,459.1,1028.6z"/>
		<path class="st0" d="M583.1,1094.6V964.2h47c6.9,0,13.4,0.7,19.5,2c6.1,1.3,11.4,3.6,15.9,6.7c4.5,3.1,8.1,7.3,10.8,12.5
			c2.7,5.2,4,11.7,4,19.4c0,9.6-2.1,17.5-6.3,23.7c-4.2,6.2-9.8,10.8-16.9,13.9l29.6,52.2h-24.4c-5.3,0-10.1-2.9-12.6-7.6l-20-37.5
			c-0.6-1.2-1.8-1.9-3.1-1.9h-14.1v47H583.1z M612.5,1024.2h15.2c7.7,0,13.6-1.6,17.7-4.9c4.1-3.3,6.1-8.1,6.1-14.5
			c0-6.4-2-10.9-6.1-13.4c-4.1-2.5-10-3.8-17.7-3.8h-15.2V1024.2z"/>
	</g>
</g>
</svg>
